<svg width="800" height="800" viewBox="0 0 800 800" fill="none" xmlns="http://www.w3.org/2000/svg">
<rect width="800" height="800" fill="#E8E8E8"/>
<g filter="url(#filter0_d_1_2)">
<rect x="95" y="95" width="610" height="610" rx="113" fill="url(#paint0_radial_1_2)"/>
<rect x="100.5" y="100.5" width="599" height="599" rx="107.5" stroke="url(#paint1_linear_1_2)" stroke-width="11"/>
</g>
<path d="M345.946 493.293H309.109C284.685 493.293 261.261 483.591 243.99 466.32C226.72 449.05 217.017 425.626 217.017 401.201C217.017 376.777 226.72 353.353 243.99 336.082C261.261 318.812 284.685 309.109 309.109 309.109H345.946M456.456 309.109H493.293C517.718 309.109 541.142 318.812 558.412 336.082C575.683 353.353 585.385 376.777 585.385 401.201C585.385 425.626 575.683 449.05 558.412 466.32C541.142 483.591 517.718 493.293 493.293 493.293H456.456M327.528 401.201H474.875" stroke="white" stroke-width="28" stroke-linecap="round" stroke-linejoin="round"/>
<defs>
<filter id="filter0_d_1_2" x="41" y="45" width="718" height="718" filterUnits="userSpaceOnUse" color-interpolation-filters="sRGB">
<feFlood flood-opacity="0" result="BackgroundImageFix"/>
<feColorMatrix in="SourceAlpha" type="matrix" values="0 0 0 0 0 0 0 0 0 0 0 0 0 0 0 0 0 0 127 0" result="hardAlpha"/>
<feMorphology radius="20" operator="dilate" in="SourceAlpha" result="effect1_dropShadow_1_2"/>
<feOffset dy="4"/>
<feGaussianBlur stdDeviation="17"/>
<feComposite in2="hardAlpha" operator="out"/>
<feColorMatrix type="matrix" values="0 0 0 0 1 0 0 0 0 1 0 0 0 0 1 0 0 0 0.85 0"/>
<feBlend mode="normal" in2="BackgroundImageFix" result="effect1_dropShadow_1_2"/>
<feBlend mode="normal" in="SourceGraphic" in2="effect1_dropShadow_1_2" result="shape"/>
</filter>
<radialGradient id="paint0_radial_1_2" cx="0" cy="0" r="1" gradientUnits="userSpaceOnUse" gradientTransform="translate(351.303 602.479) rotate(-77.9659) scale(676.119)">
<stop stop-color="#3A3A3A"/>
<stop offset="1"/>
</radialGradient>
<linearGradient id="paint1_linear_1_2" x1="400" y1="95" x2="400" y2="705" gradientUnits="userSpaceOnUse">
<stop stop-color="#383838"/>
<stop offset="1" stop-color="#CACACA"/>
</linearGradient>
</defs>
</svg>
